<svg xmlns="http://www.w3.org/2000/svg" width="213.717" height="79.143" viewBox="0 0 213.717 79.143"><defs><style>.a,.d{fill:#151011;}.b{fill:#ffc609;}.c{fill:#fff;}.d{fill-rule:evenodd;}</style></defs><g transform="translate(0 0.718)"><g transform="translate(3.044 51.535)"><path class="a" d="M4895.166,9.1l-24.237-25.551L4896-17.249" transform="translate(-4870.929 17.249)"/></g><g transform="translate(25.523 48.996)"><path class="b" d="M3.325,0H60.612a3.325,3.325,0,0,1,3.325,3.325V25.091a3.321,3.321,0,0,1-3.321,3.321H3.324A3.324,3.324,0,0,1,0,25.088V3.325A3.325,3.325,0,0,1,3.325,0Z" transform="translate(0.507 0.509)"/><path class="a" d="M4958.018,9.294h-58.092a3.436,3.436,0,0,1-3.429-3.432V-16.707a3.432,3.432,0,0,1,3.429-3.429h58.092a3.427,3.427,0,0,1,3.427,3.429V5.862A3.431,3.431,0,0,1,4958.018,9.294Zm-58.092-28.417a2.42,2.42,0,0,0-2.413,2.416V5.862a2.42,2.42,0,0,0,2.413,2.416h58.092a2.42,2.42,0,0,0,2.412-2.416V-16.707a2.42,2.42,0,0,0-2.412-2.416Z" transform="translate(-4896.496 20.136)"/></g><g transform="translate(0.505 0.509)"><path class="c" d="M5077.281-41.891c4.5-3.31,4.5-8.717-.012-12.02l-2.317-1.7c-4.5-3.3-11.942-8.607-16.528-11.8l-3.04-2.115c-4.585-3.184-8.335-5.778-8.335-5.76s-4.571.034-10.158.034H4878.2a10.186,10.186,0,0,0-10.157,10.155V-30.6A10.186,10.186,0,0,0,4878.2-20.445h168.89c0,.011,0,.011.012,0s.018,0,.035,0a.023.023,0,0,0,.017-.017c0-.006,3.753-2.626,8.33-5.823l2.973-2.076c4.577-3.2,12.008-8.517,16.512-11.826Z" transform="translate(-4868.042 75.281)"/></g><path class="a" d="M5047.019-20h-.507c-1.316,0-5.126-.01-9.65-.01H4878.129a10.672,10.672,0,0,1-10.662-10.662V-65.162a10.674,10.674,0,0,1,10.662-10.661h158.693c4.753,0,8.4-.01,9.648-.024v-.009l.5,0h.007c.2,0,.3.071,8.628,5.856l3.032,2.111c4.6,3.2,12.027,8.5,16.541,11.808l2.318,1.7a7.988,7.988,0,0,1,3.587,6.416,7.985,7.985,0,0,1-3.578,6.421l-2.318,1.7c-4.511,3.317-11.918,8.623-16.518,11.835l-2.971,2.078c-3.969,2.773-7.275,5.081-8.109,5.673v.25Zm-168.89-54.809a9.662,9.662,0,0,0-9.649,9.645V-30.67a9.662,9.662,0,0,0,9.649,9.648h165.905c1.463,0,2.312,0,2.8.039l.151-.034c.72-.573,2.693-1.956,8.135-5.755l2.97-2.077c4.594-3.2,12-8.5,16.5-11.82l2.317-1.7a6.981,6.981,0,0,0,3.166-5.6,7,7,0,0,0-3.177-5.6l-2.315-1.7c-4.51-3.306-11.92-8.591-16.52-11.791l-3.037-2.11c-4.429-3.084-7.692-5.331-8.231-5.692-.5.04-1.342.04-2.8.049-1.838.005-4.377.009-7.17.009Z" transform="translate(-4867.467 75.86)"/><g transform="translate(16.129 9.751)"><path class="a" d="M4885.811-64.06h7.541a17.286,17.286,0,0,1,5.213.626,6.106,6.106,0,0,1,2.858,1.778,5.529,5.529,0,0,1,1.2,2.787,25.969,25.969,0,0,1,.237,3.65,10.908,10.908,0,0,1-1.059,4.975,5.171,5.171,0,0,1-3.6,2.709,6.355,6.355,0,0,1,4.49,2.86,10.679,10.679,0,0,1,1.274,5.449q0,2.309-.169,4.3a8.468,8.468,0,0,1-1.009,3.485,5.683,5.683,0,0,1-2.639,2.329,12.452,12.452,0,0,1-5.12.837h-9.22Zm4.514,15.277h3.6a4.8,4.8,0,0,0,2.282-.455,3.293,3.293,0,0,0,1.294-1.252,4.763,4.763,0,0,0,.578-1.892,23.66,23.66,0,0,0,.122-2.452,15.558,15.558,0,0,0-.19-2.645,3.889,3.889,0,0,0-.7-1.7,2.775,2.775,0,0,0-1.417-.936,8.219,8.219,0,0,0-2.4-.289h-3.173Zm0,17h3.459a8.372,8.372,0,0,0,3.145-.472,3.582,3.582,0,0,0,1.686-1.395,5.057,5.057,0,0,0,.643-2.26c.066-.9.1-1.939.1-3.122a19.407,19.407,0,0,0-.169-2.742,4.723,4.723,0,0,0-.7-1.991,3.267,3.267,0,0,0-1.491-1.2,6.3,6.3,0,0,0-2.5-.411h-4.176Z" transform="translate(-4885.811 64.684)"/><path class="a" d="M4921.489-28.272l-3.422-16.041h-3.572v16.041h-4.756V-64.06h7.612a17.594,17.594,0,0,1,4.8.532,5.611,5.611,0,0,1,2.769,1.655,5.923,5.923,0,0,1,1.276,2.855,23.362,23.362,0,0,1,.316,4.136q0,2.017-.168,3.7a12.793,12.793,0,0,1-.625,2.95,6.231,6.231,0,0,1-1.25,2.137,4.091,4.091,0,0,1-2.043,1.206l4.375,16.618Zm-3.536-19.694a5.5,5.5,0,0,0,2.139-.337,2.479,2.479,0,0,0,1.224-1.129,5.42,5.42,0,0,0,.554-2.087c.076-.863.12-1.922.12-3.175,0-1.085-.044-2.009-.12-2.76a4.151,4.151,0,0,0-.554-1.8,2.481,2.481,0,0,0-1.319-.979,7.431,7.431,0,0,0-2.378-.314h-3.124v12.584Z" transform="translate(-4888.702 64.684)"/><path class="a" d="M4941.2-64.77a10.86,10.86,0,0,1,5.5,1.156,6.863,6.863,0,0,1,2.883,3.457,18.315,18.315,0,0,1,1.127,5.79q.192,3.482.188,8.143,0,4.707-.188,8.164a18.3,18.3,0,0,1-1.127,5.769,6.782,6.782,0,0,1-2.883,3.433,11.115,11.115,0,0,1-5.5,1.124,11.022,11.022,0,0,1-5.549-1.17,7.232,7.232,0,0,1-2.976-3.482,17.885,17.885,0,0,1-1.226-5.764c-.155-2.31-.239-5-.239-8.072q0-4.566.239-8.024a18.325,18.325,0,0,1,1.226-5.81,7.178,7.178,0,0,1,2.976-3.537A11.028,11.028,0,0,1,4941.2-64.77Zm0,3.749a4.041,4.041,0,0,0-2.711.841A5.273,5.273,0,0,0,4937-57.556a21.358,21.358,0,0,0-.652,4.6c-.094,1.869-.141,4.126-.141,6.757q0,3.995.141,6.785a21.234,21.234,0,0,0,.652,4.568,4.951,4.951,0,0,0,1.489,2.575,4.2,4.2,0,0,0,2.711.8,3.911,3.911,0,0,0,2.617-.8,4.844,4.844,0,0,0,1.4-2.575,21.6,21.6,0,0,0,.551-4.568q.1-2.786.1-6.785c0-2.631-.032-4.888-.1-6.757a22.17,22.17,0,0,0-.551-4.625,4.968,4.968,0,0,0-1.4-2.618A3.822,3.822,0,0,0,4941.2-61.021Z" transform="translate(-4891.292 64.77)"/><path class="a" d="M4967.055-36.868h-6.678l-1.491,8.6h-4.512l7.108-35.788h5.043l7.211,35.788H4968.5Zm-6.341-3.747h5.911l-2.887-15.665Z" transform="translate(-4894.09 64.684)"/><path class="a" d="M4987.089-64.06a13.8,13.8,0,0,1,6.125,1.131,7.4,7.4,0,0,1,3.363,3.363,15.268,15.268,0,0,1,1.416,5.595c.2,2.246.291,4.852.291,7.833q0,4.9-.266,8.311a14.794,14.794,0,0,1-1.342,5.526,6.553,6.553,0,0,1-3.267,3.072,15.182,15.182,0,0,1-5.984.957h-8.354V-64.06Zm-3.312,3.654v28.2h3.746a5.789,5.789,0,0,0,3.2-.772,4.639,4.639,0,0,0,1.772-2.449,16.274,16.274,0,0,0,.774-4.326c.109-1.757.166-3.894.166-6.386,0-2.624-.051-4.847-.146-6.654a15.852,15.852,0,0,0-.743-4.4,4.484,4.484,0,0,0-1.871-2.446,6.725,6.725,0,0,0-3.487-.771Z" transform="translate(-4897.072 64.684)"/><path class="a" d="M5014.237-64.06h4.9l3.988,28.492,3.55-28.492h5l-6,35.788h-4.662l-4.319-28.77-4.183,28.77h-5.138l-5.958-35.788h5.1l3.65,28.579Z" transform="translate(-4899.769 64.684)"/><path class="a" d="M5046.108-36.868h-6.675l-1.486,8.6h-4.517l7.11-35.788h5.043l7.2,35.788h-5.234Zm-6.338-3.747h5.909l-2.886-15.665Z" transform="translate(-4903.636 64.684)"/><path class="a" d="M5061.974-48.3l4.516-15.757h3.992l-6.3,20.7v15.083h-4.7V-43.355l-6.437-20.7h4.659Z" transform="translate(-4906.002 64.684)"/></g><g transform="translate(37.082 58.737)"><path class="a" d="M4917.311-4.917A5.129,5.129,0,0,1,4917-3.04a3.841,3.841,0,0,1-.84,1.344,3.576,3.576,0,0,1-1.211.8,3.784,3.784,0,0,1-1.431.273h-2V5.693h-1.873V-9.057h3.743a5.1,5.1,0,0,1,1.364.188,3.307,3.307,0,0,1,1.265.686,3.569,3.569,0,0,1,.934,1.273A4.858,4.858,0,0,1,4917.311-4.917Zm-1.873.023a2.622,2.622,0,0,0-.627-1.945,2.191,2.191,0,0,0-1.615-.619h-1.683v5.273h1.683a2.086,2.086,0,0,0,1.615-.678A2.9,2.9,0,0,0,4915.438-4.894Z" transform="translate(-4909.641 9.057)"/><path class="a" d="M4920.9,5.693V-9.057h1.879V5.693Z" transform="translate(-4911 9.057)"/><path class="a" d="M4925.476,5.693V4.11L4930.748-7.4h-4.958V-9.057h6.959v1.581l-5.23,11.462h5.23V5.693Z" transform="translate(-4911.554 9.057)"/><path class="a" d="M4935.217,5.693V4.11L4940.491-7.4h-4.959V-9.057h6.964v1.581l-5.235,11.462h5.235V5.693Z" transform="translate(-4912.729 9.057)"/><path class="a" d="M4952.419,5.693l-.833-3.456h-4.274l-.855,3.456h-1.9l3.708-14.75h2.479l3.63,14.75Zm-2.9-13h-.082L4947.56.754h3.776Z" transform="translate(-4913.858 9.057)"/></g></g><path class="d" d="M5102.028-63.56a6.631,6.631,0,0,1-6.665-6.574,6.571,6.571,0,0,1,6.684-6.542,6.586,6.586,0,0,1,6.653,6.553A6.6,6.6,0,0,1,5102.028-63.56Zm-.006-.754a5.863,5.863,0,0,0,5.939-5.786,5.917,5.917,0,0,0-5.906-5.84,5.888,5.888,0,0,0-5.948,5.813A5.874,5.874,0,0,0,5102.022-64.315Z" transform="translate(-4894.983 76.676)"/><path class="d" d="M5103.68-69.44a3.978,3.978,0,0,1,1.415,1.466c.39.6.773,1.2,1.155,1.807.053.085.162.172.114.268-.059.118-.2.058-.306.062-.211.007-.43-.018-.64,0a.548.548,0,0,1-.577-.324c-.524-.832-1.025-1.681-1.625-2.463a1.661,1.661,0,0,0-1.506-.734,8.48,8.48,0,0,1-.921,0c-.235-.014-.3.085-.3.307.01.95.007,1.9,0,2.845,0,.367,0,.367-.375.369-.766,0-.766,0-.766-.762v-6.856c0-.394,0-.4.4-.4,1.17,0,2.339.005,3.512,0a4.023,4.023,0,0,1,.829.09,2.025,2.025,0,0,1,1.69,1.908,2.068,2.068,0,0,1-1.3,2.157C5104.244-69.593,5103.98-69.532,5103.68-69.44Zm-1.73-.9a11.934,11.934,0,0,0,1.484-.053,1.284,1.284,0,0,0,1.21-1.264,1.253,1.253,0,0,0-1.24-1.219c-.892-.1-1.78-.02-2.671-.05-.188,0-.24.077-.238.25,0,.7,0,1.393,0,2.09,0,.2.089.252.271.248C5101.136-70.339,5101.508-70.335,5101.95-70.335Z" transform="translate(-4895.465 76.335)"/></svg>